<svg xmlns="http://www.w3.org/2000/svg" class="logo-full-dark" viewBox="0 0 137 40"><mask id="a" width="25" height="40" x="0" y="0" maskUnits="userSpaceOnUse" style="mask-type:luminance"><path fill="#fff" d="M24.836 0H0v40h24.836V0Z"/></mask><g mask="url(#a)"><path fill="#000" d="m24.836 6.207-12.418 6.207L0 6.207 12.418 0l12.418 6.207Z"/><path fill="#366274" d="M12.418 24.828 0 18.62V6.207l12.418 6.207v12.414Z"/><path fill="#001321" d="m24.836 18.62-12.418 6.208V12.414l12.418-6.207V18.62Z"/><path fill="#9CFFD3" d="M12.418 40 0 33.793V21.38l12.418 6.207V40Z"/><path fill="#339F73" d="M24.836 33.793 12.418 40V27.586l12.418-6.207v12.414Z"/></g><path fill="#001321" d="M39.542 12.187c1.38 0 2.543.163 3.487.49.963.326 1.734.861 2.316 1.605.58.725.998 1.713 1.253 2.964.272 1.233.408 2.757.408 4.57 0 1.813-.136 3.346-.408 4.597-.255 1.233-.672 2.221-1.253 2.965-.581.725-1.353 1.25-2.316 1.577-.944.327-2.106.49-3.487.49-1.307 0-2.524-.027-3.65-.082a79.474 79.474 0 0 1-3.16-.163l1.145-2.176c.762.036 1.607.073 2.533.109.944.018 1.988.027 3.133.027 1.162 0 2.079-.227 2.75-.68.673-.453 1.145-1.206 1.417-2.258.29-1.07.436-2.538.436-4.406 0-1.868-.145-3.327-.436-4.38-.272-1.069-.744-1.83-1.416-2.284-.672-.471-1.59-.707-2.752-.707-1.125 0-2.133.009-3.023.027l-2.615.054-1.172-2.094a79.474 79.474 0 0 1 3.16-.163 75.929 75.929 0 0 1 3.65-.082Zm-4.086.245V31.2h-2.724V12.432h2.724ZM56.267 17.6c2.053 0 3.533.372 4.44 1.115.927.726 1.39 1.804 1.39 3.237.018 1.197-.245 2.122-.79 2.774-.527.653-1.39.98-2.588.98h-7.682v-1.877h7.001c.6 0 .99-.19 1.171-.571.182-.381.273-.816.273-1.306-.018-.816-.264-1.396-.736-1.74-.454-.345-1.244-.518-2.37-.518-.926 0-1.652.136-2.179.408-.526.272-.899.744-1.117 1.415-.2.67-.3 1.614-.3 2.829 0 1.36.128 2.402.382 3.128.273.707.7 1.196 1.28 1.468.6.272 1.39.408 2.37.408.69 0 1.462-.027 2.316-.081a54.388 54.388 0 0 0 2.37-.245l.272 1.714a8.725 8.725 0 0 1-1.58.462c-.617.109-1.253.19-1.907.245-.654.054-1.253.081-1.798.081-1.561 0-2.814-.235-3.759-.707-.944-.471-1.634-1.215-2.07-2.23-.436-1.034-.654-2.385-.654-4.053 0-1.74.218-3.119.654-4.134.436-1.016 1.117-1.732 2.043-2.15.926-.434 2.116-.652 3.569-.652Zm21.195.326-4.767 12.621c-.091.2-.218.363-.382.49a.883.883 0 0 1-.544.163h-2.343c-.218 0-.409-.054-.572-.163a1.42 1.42 0 0 1-.354-.49l-4.767-12.62h2.806l3.132 9.111c.145.381.273.771.381 1.17.128.399.246.789.355 1.17h.354c.145-.4.281-.79.408-1.17.127-.399.255-.789.382-1.17l3.105-9.112h2.806Zm5.397-5.494v14.797c0 .58.145 1.015.435 1.305.29.272.736.408 1.335.408h6.728l.136 2.095c-1.216.09-2.451.145-3.704.163a258.82 258.82 0 0 1-3.76.027c-1.38 0-2.369-.335-2.968-1.006-.6-.69-.9-1.55-.9-2.584V12.432h2.698ZM100.47 17.6c1.017 0 1.87.136 2.56.408.708.254 1.236.698 1.58 1.333.364.634.545 1.505.545 2.611V31.2h-2.07l-.409-2.883-.163-.327v-6.038c0-.78-.181-1.342-.545-1.686-.363-.345-1.053-.517-2.07-.517-.69 0-1.562.036-2.615.109l-3.079.217-.245-1.877a39.022 39.022 0 0 1 2.043-.299c.763-.09 1.535-.163 2.316-.217a31.155 31.155 0 0 1 2.152-.082Zm3.486 5.413-.027 1.85-6.265.027c-.617.018-1.053.181-1.308.49-.235.29-.354.697-.354 1.223v.816c0 .653.155 1.134.463 1.442.327.29.836.435 1.526.435.509 0 1.072-.09 1.689-.272.636-.2 1.271-.49 1.906-.87a7.397 7.397 0 0 0 1.717-1.496v1.713a7.803 7.803 0 0 1-.818.925c-.363.345-.807.68-1.334 1.006a7.87 7.87 0 0 1-1.716.816 6.106 6.106 0 0 1-2.044.327c-.798 0-1.507-.136-2.124-.408a3.39 3.39 0 0 1-1.417-1.251c-.344-.563-.517-1.243-.517-2.04v-1.442c0-1.034.327-1.84.98-2.42.673-.581 1.599-.871 2.779-.871h6.864Zm12.551-5.413c1.652 0 2.869.535 3.65 1.605.781 1.052 1.171 2.82 1.171 5.304 0 1.124-.099 2.121-.3 2.992-.181.87-.499 1.605-.953 2.203-.453.598-1.071 1.052-1.852 1.36-.763.308-1.734.462-2.915.462-.453 0-.953-.018-1.498-.054-.545-.036-1.099-.1-1.662-.19a22.067 22.067 0 0 1-1.634-.272 9.673 9.673 0 0 1-1.444-.463l2.098-1.713c.472.145.935.263 1.389.353.473.09.936.154 1.389.19.473.019.909.028 1.308.028.817-.036 1.462-.2 1.934-.49.49-.29.844-.789 1.062-1.496.236-.725.354-1.695.354-2.91 0-1.179-.09-2.104-.272-2.775-.164-.689-.472-1.178-.926-1.468-.436-.309-1.063-.463-1.88-.463-.69 0-1.352.19-1.988.571-.617.363-1.326.853-2.125 1.47l-.191-1.633a9.712 9.712 0 0 1 1.635-1.414 6.521 6.521 0 0 1 1.77-.898c.618-.2 1.244-.299 1.88-.299Zm-4.795-5.44v4.842c0 .562-.017 1.097-.054 1.604a8.25 8.25 0 0 1-.245 1.47l.272.38.027 10.227-2.642-.136V12.16h2.642Zm17.63 5.44c.581 0 1.208.018 1.88.054.672.037 1.334.082 1.988.136.672.055 1.28.127 1.825.218l-.19 1.85c-.854-.037-1.708-.064-2.561-.082a57.875 57.875 0 0 0-2.506-.054c-.799-.019-1.425 0-1.88.054-.454.054-.781.19-.98.408-.2.218-.3.59-.3 1.115 0 .635.155 1.052.463 1.251.327.2.809.372 1.444.517l3.786.87c1.071.273 1.861.672 2.37 1.197.509.526.763 1.36.763 2.503 0 1.088-.209 1.913-.627 2.475-.399.544-1.026.907-1.879 1.088-.853.2-1.934.3-3.242.3-.49 0-1.225-.019-2.206-.055a24.418 24.418 0 0 1-3.187-.354l.191-1.822c.417.018.871.036 1.361.054.491.018 1.008.027 1.553.027h1.689c.981 0 1.743-.036 2.288-.108.563-.091.954-.254 1.171-.49.237-.254.355-.626.355-1.115 0-.599-.191-.998-.572-1.197-.363-.218-.863-.399-1.499-.544l-3.731-.87c-.763-.182-1.371-.427-1.826-.735a2.896 2.896 0 0 1-.953-1.197c-.182-.49-.272-1.097-.272-1.822 0-1.015.182-1.786.544-2.312.363-.544.927-.907 1.689-1.088.781-.2 1.798-.29 3.051-.272Z"/></svg>